<?xml version="1.0" encoding="UTF-8"?>
<svg xmlns="http://www.w3.org/2000/svg" xmlns:xlink="http://www.w3.org/1999/xlink" viewBox="0 0 48 48" version="1.1" width="48px" height="48px">
<g id="surface1">
<path style=" fill:#37474F;" d="M 24 9 C 10.699219 9 0 15.699219 0 24 C 0 32.300781 10.699219 39 24 39 C 37.300781 39 48 32.300781 48 24 C 48 15.800781 37.300781 9 24 9 Z "/>
<path style=" fill:#FFEB3B;" d="M 24 11 C 12.101563 11 2 16.898438 2 24 C 2 31 12.101563 37 24 37 C 35.898438 37 46 31.101563 46 24 C 46 16.898438 35.898438 11 24 11 Z M 41 29.5 C 39.699219 30.601563 38 32.199219 36 33 C 39.300781 28.199219 32.898438 25.800781 30 31 C 28.898438 26.800781 25.101563 29.699219 24 35 C 22.898438 29.699219 19.101563 26.800781 18 31 C 15.101563 25.800781 8.699219 28.199219 12 33 C 10 32.199219 8.300781 30.601563 7 29.398438 C 5.199219 27.699219 4.101563 25.699219 4 23.800781 C 4.101563 19.601563 8.898438 15.601563 16 14 C 11 20.601563 19.101563 25.300781 20.5 19.398438 L 21.101563 13.5 L 22.5 15 L 25.5 15 L 26.898438 13.5 L 27.5 19.398438 C 28.898438 25.199219 37 20.601563 32 14 C 39.101563 15.699219 43.898438 19.699219 44 23.898438 C 43.898438 25.800781 42.800781 27.800781 41 29.5 Z "/>
</g>
</svg>
