<?xml version="1.0" encoding="utf-8"?>
<!-- Generator: Adobe Illustrator 21.0.2, SVG Export Plug-In . SVG Version: 6.00 Build 0)  -->
<svg xmlns="http://www.w3.org/2000/svg" xmlns:xlink="http://www.w3.org/1999/xlink" version="1.1" id="Layer_1" x="0px" y="0px" viewBox="0 0 48 48" style="enable-background:new 0 0 48 48;" xml:space="preserve" width="48px" height="48px">
<polygon style="fill:#263238;" points="35.4,41 34,27 14,27 12.6,41 6,47 42,47 "/>
<path style="fill:#455A64;" d="M36,17c0,0-0.3-9-12-9s-12,9-12,9c0,6.6,2,17.3,2.8,20.8c0.2,0.7,0.6,1.4,1.2,1.8l5.5,3.9  c0.3,0.2,0.7,0.4,1.2,0.4h2.7c0.4,0,0.8-0.1,1.2-0.4l5.5-3.9c0.6-0.4,1-1.1,1.2-1.8C34,34.3,36,23.6,36,17z"/>
<path style="fill:#607D8B;" d="M24,33v-7.3L22,25l-1.7,6.9C21.7,32.5,23.2,33,24,33z"/>
<path style="fill:#37474F;" d="M33,23l-7,2l1.7,6.9l1.8,9.6l2.5-1.8c0.6-0.4,1-1.1,1.2-1.8c0.4-2,1.3-6.4,1.9-11l0,0  c0.1-0.8,0.2-1.6,0.3-2.4c0,0,0,0,0,0c0.1-0.8,0.2-1.6,0.3-2.4L33,23z"/>
<path style="fill:#37474F;" d="M15,23l7,2l-1.7,6.9l-1.8,9.6L16,39.7c-0.6-0.4-1-1.1-1.2-1.8c-0.4-2-1.3-6.4-1.9-11l0,0  c-0.1-0.8-0.2-1.6-0.3-2.4c0,0,0,0,0,0c-0.1-0.8-0.2-1.6-0.3-2.4L15,23z"/>
<path style="fill:#FFFFFF;" d="M26,25l7-2c0,0-2,3-4,3S26,25,26,25z"/>
<path style="fill:#FFFFFF;" d="M22,25l-7-2c0,0,2,3,4,3S22,25,22,25z"/>
<path style="fill:#455A64;" d="M12,17c0-7,2-16,2-16l3,9l-4,7H12z"/>
<path style="fill:#455A64;" d="M36,17c0-7-2-16-2-16l-3,9l4,7H36z"/>
<path style="fill:#607D8B;" d="M17.7,12c0,0,2.3-2,6.3-2s6.3,2,6.3,2l0.8-2.4C29.4,8.6,27.1,8,24,8s-5.4,0.6-7.1,1.6L17.7,12z"/>
<path style="fill:#FFB74D;" d="M16,30c0,0,6,3,8,3s8-3,8-3l-2,11.2l-3.5,2.4c-0.3,0.3-0.8,0.4-1.2,0.4h-2.7c-0.4,0-0.9-0.1-1.2-0.4  L18,41.1L16,30z"/>
<path style="fill:#FB8C00;" d="M20.4,37.7l-0.9-1.8c0.1,0,1.8-0.9,4.4-0.9c2.6,0,4.4,0.9,4.4,0.9l-0.9,1.8c0,0-1.4-0.7-3.6-0.7  C21.9,37,20.5,37.7,20.4,37.7z"/>
</svg>
